<svg width="142" height="31" viewBox="0 0 142 31" fill="none" xmlns="http://www.w3.org/2000/svg">
<path d="M20.9358 30H2.37578C1.86911 30 1.49578 29.8933 1.25578 29.68C1.04245 29.44 0.935781 29.0667 0.935781 28.56V2.64C0.935781 2.13333 1.04245 1.77333 1.25578 1.56C1.49578 1.32 1.86911 1.2 2.37578 1.2H20.9358C21.4424 1.2 21.8024 1.32 22.0158 1.56C22.2558 1.77333 22.3758 2.13333 22.3758 2.64V7.32C22.3758 7.82667 22.2558 8.2 22.0158 8.44C21.8024 8.65333 21.4424 8.76 20.9358 8.76H9.89578V11.84H17.6958C18.2024 11.84 18.5624 11.96 18.7758 12.2C19.0158 12.4133 19.1358 12.7733 19.1358 13.28V17.56C19.1358 18.0667 19.0158 18.44 18.7758 18.68C18.5624 18.8933 18.2024 19 17.6958 19H9.89578V22.44H20.9358C21.4424 22.44 21.8024 22.56 22.0158 22.8C22.2558 23.0133 22.3758 23.3733 22.3758 23.88V28.56C22.3758 29.0667 22.2558 29.44 22.0158 29.68C21.8024 29.8933 21.4424 30 20.9358 30ZM36.1477 8.4V13.52H39.1477C39.841 13.52 40.3077 13.3467 40.5477 13C40.7877 12.6267 40.9077 12.1733 40.9077 11.64V10.28C40.9077 9.74667 40.7877 9.30667 40.5477 8.96C40.3077 8.58667 39.841 8.4 39.1477 8.4H36.1477ZM34.7077 30H28.5477C28.041 30 27.6677 29.8933 27.4277 29.68C27.2143 29.44 27.1077 29.0667 27.1077 28.56V2.64C27.1077 2.13333 27.2143 1.77333 27.4277 1.56C27.6677 1.32 28.041 1.2 28.5477 1.2H41.8677C44.8543 1.2 46.9077 1.82667 48.0277 3.08C49.1743 4.30667 49.7477 5.90667 49.7477 7.88V9.72C49.7477 10.84 49.5743 11.8 49.2277 12.6C48.9077 13.3733 48.3343 13.9333 47.5077 14.28C48.9477 14.44 50.1077 15.0267 50.9877 16.04C51.8943 17.0533 52.3477 18.4 52.3477 20.08V28.56C52.3477 29.0667 52.2277 29.44 51.9877 29.68C51.7743 29.8933 51.4143 30 50.9077 30H44.7077C44.201 30 43.8277 29.8933 43.5877 29.68C43.3743 29.44 43.2677 29.0667 43.2677 28.56V22.44C43.2677 21.8533 43.1477 21.4267 42.9077 21.16C42.6943 20.8667 42.3077 20.72 41.7477 20.72H36.1477V28.56C36.1477 29.0667 36.0277 29.44 35.7877 29.68C35.5743 29.8933 35.2143 30 34.7077 30ZM65.8742 8.4V13.52H68.8742C69.5676 13.52 70.0342 13.3467 70.2742 13C70.5142 12.6267 70.6342 12.1733 70.6342 11.64V10.28C70.6342 9.74667 70.5142 9.30667 70.2742 8.96C70.0342 8.58667 69.5676 8.4 68.8742 8.4H65.8742ZM64.4342 30H58.2742C57.7676 30 57.3942 29.8933 57.1542 29.68C56.9409 29.44 56.8342 29.0667 56.8342 28.56V2.64C56.8342 2.13333 56.9409 1.77333 57.1542 1.56C57.3942 1.32 57.7676 1.2 58.2742 1.2H71.5942C74.5809 1.2 76.6342 1.82667 77.7542 3.08C78.9009 4.30667 79.4742 5.90667 79.4742 7.88V9.72C79.4742 10.84 79.3009 11.8 78.9542 12.6C78.6342 13.3733 78.0609 13.9333 77.2342 14.28C78.6742 14.44 79.8342 15.0267 80.7142 16.04C81.6209 17.0533 82.0742 18.4 82.0742 20.08V28.56C82.0742 29.0667 81.9542 29.44 81.7142 29.68C81.5009 29.8933 81.1409 30 80.6342 30H74.4342C73.9276 30 73.5542 29.8933 73.3142 29.68C73.1009 29.44 72.9942 29.0667 72.9942 28.56V22.44C72.9942 21.8533 72.8742 21.4267 72.6342 21.16C72.4209 20.8667 72.0342 20.72 71.4742 20.72H65.8742V28.56C65.8742 29.0667 65.7542 29.44 65.5142 29.68C65.3009 29.8933 64.9409 30 64.4342 30ZM110.765 22.44C110.765 23.6667 110.579 24.7867 110.205 25.8C109.859 26.7867 109.219 27.64 108.285 28.36C107.379 29.0533 106.112 29.6 104.485 30C102.885 30.4 100.845 30.6 98.3655 30.6C95.8855 30.6 93.8321 30.4 92.2055 30C90.5788 29.6 89.2988 29.0533 88.3655 28.36C87.4588 27.64 86.8188 26.7867 86.4455 25.8C86.0988 24.7867 85.9255 23.6667 85.9255 22.44V8.8C85.9255 7.57333 86.0988 6.46667 86.4455 5.48C86.8188 4.46667 87.4588 3.6 88.3655 2.88C89.2988 2.16 90.5788 1.6 92.2055 1.2C93.8321 0.799999 95.8855 0.599999 98.3655 0.599999C100.845 0.599999 102.885 0.799999 104.485 1.2C106.112 1.6 107.379 2.16 108.285 2.88C109.219 3.6 109.859 4.46667 110.205 5.48C110.579 6.46667 110.765 7.57333 110.765 8.8V22.44ZM95.0055 21C95.0055 21.5333 95.2055 21.9867 95.6055 22.36C96.0055 22.7067 96.9255 22.88 98.3655 22.88C99.8055 22.88 100.725 22.7067 101.125 22.36C101.525 21.9867 101.725 21.5333 101.725 21V10.24C101.725 9.73333 101.525 9.30667 101.125 8.96C100.725 8.58667 99.8055 8.4 98.3655 8.4C96.9255 8.4 96.0055 8.58667 95.6055 8.96C95.2055 9.30667 95.0055 9.73333 95.0055 10.24V21ZM124.898 8.4V13.52H127.898C128.591 13.52 129.058 13.3467 129.298 13C129.538 12.6267 129.658 12.1733 129.658 11.64V10.28C129.658 9.74667 129.538 9.30667 129.298 8.96C129.058 8.58667 128.591 8.4 127.898 8.4H124.898ZM123.458 30H117.298C116.791 30 116.418 29.8933 116.178 29.68C115.964 29.44 115.858 29.0667 115.858 28.56V2.64C115.858 2.13333 115.964 1.77333 116.178 1.56C116.418 1.32 116.791 1.2 117.298 1.2H130.618C133.604 1.2 135.658 1.82667 136.778 3.08C137.924 4.30667 138.498 5.90667 138.498 7.88V9.72C138.498 10.84 138.324 11.8 137.978 12.6C137.658 13.3733 137.084 13.9333 136.258 14.28C137.698 14.44 138.858 15.0267 139.738 16.04C140.644 17.0533 141.098 18.4 141.098 20.08V28.56C141.098 29.0667 140.978 29.44 140.738 29.68C140.524 29.8933 140.164 30 139.658 30H133.458C132.951 30 132.578 29.8933 132.338 29.68C132.124 29.44 132.018 29.0667 132.018 28.56V22.44C132.018 21.8533 131.898 21.4267 131.658 21.16C131.444 20.8667 131.058 20.72 130.498 20.72H124.898V28.56C124.898 29.0667 124.778 29.44 124.538 29.68C124.324 29.8933 123.964 30 123.458 30Z" fill="#FF5959"/>
</svg>
