<svg width="102" height="102" viewBox="0 0 102 102" fill="none" xmlns="http://www.w3.org/2000/svg">
<path d="M98.001 51C98.001 76.9574 76.9584 98 51.001 98C25.0436 98 4.00098 76.9574 4.00098 51C4.00098 25.0426 25.0436 4 51.001 4C76.9584 4 98.001 25.0426 98.001 51Z" fill="white"/>
<path d="M98.001 51C98.001 25.0426 76.9584 4 51.001 4C25.0436 4 4.00098 25.0426 4.00098 51C4.00098 76.9574 25.0436 98 51.001 98C76.9584 98 98.001 76.9574 98.001 51ZM102.001 51C102.001 79.1665 79.1675 102 51.001 102C22.8345 102 0.000976563 79.1665 0.000976562 51C0.000976562 22.8335 22.8345 0 51.001 0C79.1675 0 102.001 22.8335 102.001 51Z" fill="#222222"/>
<path d="M51.001 4C76.9584 4 98.001 25.0426 98.001 51C98.001 52.2423 97.952 53.4734 97.8574 54.6914C51.6886 63.9842 20.8067 53.3538 4.80957 42.292C8.89324 20.4954 28.0192 4 51.001 4Z" fill="#FF5959"/>
<path d="M98.001 51C98.001 25.0426 76.9584 4 51.001 4C28.0192 4 8.89324 20.4954 4.80957 42.292C20.8067 53.3538 51.6886 63.9842 97.8574 54.6914C97.952 53.4734 98.001 52.2423 98.001 51ZM102.001 51C102.001 52.3473 101.948 53.6816 101.846 55.001C101.707 56.7847 100.4 58.2593 98.6465 58.6123C51.5259 68.0966 19.5152 57.3242 2.53418 45.582C1.2361 44.6843 0.587395 43.107 0.87793 41.5557C5.30951 17.9022 26.0585 0 51.001 0C79.1675 0 102.001 22.8335 102.001 51Z" fill="#222222"/>
<path d="M52.0318 39.2569C62.3754 41.0238 69.4035 50.4 67.7296 60.1992C66.0556 69.9984 56.3135 76.5098 45.9699 74.7428C35.6263 72.9759 28.5982 63.5997 30.2722 53.8005C31.9461 44.0013 41.6883 37.4899 52.0318 39.2569Z" fill="white"/>
<path d="M51.3583 43.1997C42.9887 41.77 35.4832 47.0506 34.2151 54.474C32.9469 61.8975 38.2739 69.3702 46.6435 70.7999C55.013 72.2297 62.5186 66.9491 63.7867 59.5256L67.7296 60.1992C66.0556 69.9984 56.3135 76.5098 45.9699 74.7428C35.6263 72.9759 28.5982 63.5997 30.2722 53.8005C31.9461 44.0013 41.6883 37.4899 52.0318 39.2569C62.3754 41.0238 69.4035 50.4 67.7296 60.1992L63.7867 59.5256C65.0548 52.1022 59.7279 44.6295 51.3583 43.1997Z" fill="#222222"/>
<path d="M68.4238 4.47461L67.2471 8.00293L70.4482 10.6699L68.6064 13.7383L69.8838 18.8477L79.1182 31.3135L87.9141 29.2441L92.1348 39.7969L98.9756 42.0772L98.0264 44.9229L89.8662 42.2031L89.6084 41.5566L86.0879 32.7549L79.2891 34.3545L73.501 40.5889V47.7861L66.3545 52.7334L64.6475 50.2666L70.501 46.2139V39.4111L76.3691 33.0898L66.8184 24.4063L61.2539 23.4795L61.2393 23.4775L61.2246 23.4746L53.7422 22.0713L39.8066 29.5381L29.7041 28.5273L19.1816 32.5361L7.30664 30.9873L7.69531 28.0127L18.6934 29.4473L29.3154 23.3779L29.9316 23.5635L39.3379 26.3848L53.2578 18.9287L53.7773 19.0254L61.3779 20.4502L65.7812 18.877L65.4785 13.1211L65.7148 12.7285L66.5537 11.3291L63.7539 8.99707L65.5781 3.52539L68.4238 4.47461Z" fill="#222222"/>
</svg>
