<svg width="60" height="26" viewBox="0 0 60 26" fill="none" xmlns="http://www.w3.org/2000/svg">
<path d="M13.1549 0C5.8891 0 0 5.81977 0 13C0 20.1802 5.8891 26 13.1549 26C20.4206 26 26.3097 20.1802 26.3097 13C26.348 5.81977 20.4206 0 13.1549 0ZM16.2906 17.686V18.7064H12.6195V7.2936H13.6902V17.686H16.2906ZM20.956 20.7093C18.891 22.75 16.0994 23.8837 13.1549 23.8837C10.2103 23.8837 7.45698 22.75 5.35373 20.7093C3.28872 18.6686 2.14149 15.9099 2.14149 13C2.14149 6.99128 7.07457 2.11628 13.1549 2.11628H13.6902V3.13663H13.1549C10.478 3.13663 7.99235 4.15698 6.0803 6.00872C4.2065 7.89825 3.174 10.3547 3.174 13C3.174 15.6453 4.2065 18.1017 6.11855 19.9913C7.99235 21.843 10.5163 22.9012 13.1931 22.9012C18.4704 22.9012 22.7916 18.8198 23.174 13.718V13.5669H16.3289V12.5843H23.7476H24.2065V13.0756C24.2065 15.9099 23.021 18.6686 20.956 20.7093ZM10.5545 8.84302C10.5545 9.71221 9.86615 10.3924 8.98661 10.3924C8.10707 10.3924 7.41874 9.71221 7.41874 8.84302C7.41874 7.97384 8.14531 7.2936 8.98661 7.2936C9.82791 7.2936 10.5545 8.01163 10.5545 8.84302Z" fill="#929DAC"/>
<path d="M53.1167 14.8894H56.3672V17.8371C55.7553 18.0638 54.6081 18.2906 53.4991 18.2906C49.9427 18.2906 48.7572 16.5144 48.7572 12.8865C48.7572 9.40974 49.9045 7.36904 53.4609 7.36904C55.4494 7.36904 56.5584 7.97369 57.5144 9.1452L59.9618 6.91555C58.4704 4.79927 55.8318 4.15683 53.3844 4.15683C47.8394 4.15683 44.9331 7.14229 44.9331 12.8487C44.9331 18.5173 47.5718 21.5783 53.3461 21.5783C55.9848 21.5783 58.5851 20.8981 60.0001 19.9156V11.7528H53.1167V14.8894ZM36.2142 4.42136H32.2754V21.3516H44.436V18.0638H36.2142V4.42136Z" fill="#929DAC"/>
</svg>
