<svg width="103" height="102" viewBox="0 0 103 102" fill="none" xmlns="http://www.w3.org/2000/svg">
<path d="M98.1709 50.999C98.1709 76.9564 77.1283 97.999 51.1709 97.999C25.2135 97.999 4.1709 76.9564 4.1709 50.999C4.1709 25.0416 25.2135 3.99902 51.1709 3.99902C77.1283 3.99902 98.1709 25.0416 98.1709 50.999Z" fill="white"/>
<path d="M98.1709 50.999C98.1709 25.0416 77.1283 3.99902 51.1709 3.99902C25.2135 3.99902 4.1709 25.0416 4.1709 50.999C4.1709 76.9564 25.2135 97.999 51.1709 97.999C77.1283 97.999 98.1709 76.9564 98.1709 50.999ZM102.171 50.999C102.171 79.1655 79.3374 101.999 51.1709 101.999C23.0044 101.999 0.170898 79.1655 0.170898 50.999C0.170898 22.8325 23.0044 -0.000976562 51.1709 -0.000976562C79.3374 -0.000976563 102.171 22.8325 102.171 50.999Z" fill="#222222"/>
<path d="M51.1709 3.99902C77.1283 3.99902 98.1709 25.0416 98.1709 50.999C98.1709 52.2414 98.122 53.4724 98.0273 54.6904C51.8585 63.9832 20.9766 53.3528 4.97949 42.291C9.06317 20.4944 28.1891 3.99902 51.1709 3.99902Z" fill="#75B8FF"/>
<path d="M98.1709 50.999C98.1709 25.0416 77.1283 3.99902 51.1709 3.99902C28.1891 3.99902 9.06317 20.4944 4.97949 42.291C20.9766 53.3528 51.8585 63.9832 98.0273 54.6904C98.122 53.4724 98.1709 52.2414 98.1709 50.999ZM102.171 50.999C102.171 52.3463 102.118 53.6806 102.016 55C101.877 56.7837 100.57 58.2583 98.8164 58.6113C51.6959 68.0956 19.6852 57.3232 2.7041 45.5811C1.40602 44.6833 0.757317 43.106 1.04785 41.5547C5.47943 17.9012 26.2284 -0.000976562 51.1709 -0.000976562C79.3374 -0.000976563 102.171 22.8325 102.171 50.999Z" fill="#222222"/>
<path d="M53.2018 39.2559C63.5453 41.0228 70.5734 50.399 68.8995 60.1982C67.2255 69.9974 57.4834 76.5088 47.1398 74.7418C36.7963 72.9749 29.7681 63.5987 31.4421 53.7995C33.1161 44.0003 42.8582 37.4889 53.2018 39.2559Z" fill="white"/>
<path d="M52.5282 43.1988C44.1587 41.769 36.6531 47.0496 35.385 54.4731C34.1169 61.8965 39.4438 69.3692 47.8134 70.799C56.1829 72.2287 63.6885 66.9481 64.9566 59.5247L68.8995 60.1982C67.2255 69.9974 57.4834 76.5088 47.1398 74.7418C36.7963 72.9749 29.7681 63.5987 31.4421 53.7995C33.1161 44.0003 42.8582 37.4889 53.2018 39.2559C63.5453 41.0228 70.5734 50.399 68.8995 60.1982L64.9566 59.5247C66.2247 52.1012 60.8978 44.6285 52.5282 43.1988Z" fill="#222222"/>
<path d="M69.148 15.8792C69.43 15.1003 70.2905 14.6974 71.0694 14.9794C75.4599 16.5688 84.9547 22.5588 88.8632 34.1294C89.1284 34.9142 88.707 35.7655 87.9221 36.0307C87.1372 36.2958 86.2859 35.8744 86.0208 35.0895C82.4738 24.5891 73.8064 19.1612 70.0478 17.8006C69.2689 17.5185 68.866 16.6581 69.148 15.8792Z" fill="white"/>
<path d="M91 40.4998C91 41.3283 90.3284 41.9998 89.5 41.9998C88.6716 41.9998 88 41.3283 88 40.4998C88 39.6714 88.6716 38.9998 89.5 38.9998C90.3284 38.9998 91 39.6714 91 40.4998Z" fill="white"/>
</svg>
