<svg width="96" height="22" viewBox="0 0 96 22" fill="none" xmlns="http://www.w3.org/2000/svg">
<path d="M16.2057 21H1.95367C1.59901 21 1.33767 20.9253 1.16967 20.776C1.02034 20.608 0.945672 20.3467 0.945672 19.992V1.848C0.945672 1.49333 1.02034 1.24133 1.16967 1.092C1.33767 0.923999 1.59901 0.839999 1.95367 0.839999H6.29367C6.64834 0.839999 6.90034 0.923999 7.04967 1.092C7.21767 1.24133 7.30167 1.49333 7.30167 1.848V15.708H11.1377V11.172C11.1377 10.8173 11.2123 10.5653 11.3617 10.416C11.5297 10.248 11.791 10.164 12.1457 10.164H16.2057C16.5603 10.164 16.8123 10.248 16.9617 10.416C17.1297 10.5653 17.2137 10.8173 17.2137 11.172V19.992C17.2137 20.3467 17.1297 20.608 16.9617 20.776C16.8123 20.9253 16.5603 21 16.2057 21ZM37.4944 15.708C37.4944 16.5667 37.3638 17.3507 37.1024 18.06C36.8598 18.7507 36.4118 19.348 35.7584 19.852C35.1238 20.3373 34.2371 20.72 33.0984 21C31.9784 21.28 30.5504 21.42 28.8144 21.42C27.0784 21.42 25.6411 21.28 24.5024 21C23.3638 20.72 22.4678 20.3373 21.8144 19.852C21.1798 19.348 20.7318 18.7507 20.4704 18.06C20.2278 17.3507 20.1064 16.5667 20.1064 15.708V6.16C20.1064 5.30133 20.2278 4.52667 20.4704 3.836C20.7318 3.12667 21.1798 2.52 21.8144 2.016C22.4678 1.512 23.3638 1.12 24.5024 0.839999C25.6411 0.559999 27.0784 0.42 28.8144 0.42C30.5504 0.42 31.9784 0.559999 33.0984 0.839999C34.2371 1.12 35.1238 1.512 35.7584 2.016C36.4118 2.52 36.8598 3.12667 37.1024 3.836C37.3638 4.52667 37.4944 5.30133 37.4944 6.16V15.708ZM26.4624 14.7C26.4624 15.0733 26.6024 15.3907 26.8824 15.652C27.1624 15.8947 27.8064 16.016 28.8144 16.016C29.8224 16.016 30.4664 15.8947 30.7464 15.652C31.0264 15.3907 31.1664 15.0733 31.1664 14.7V7.168C31.1664 6.81333 31.0264 6.51467 30.7464 6.272C30.4664 6.01067 29.8224 5.88 28.8144 5.88C27.8064 5.88 27.1624 6.01067 26.8824 6.272C26.6024 6.51467 26.4624 6.81333 26.4624 7.168V14.7ZM56.459 21H47.639C45.3056 21 43.5696 20.5333 42.431 19.6C41.311 18.6667 40.751 17.2293 40.751 15.288V6.552C40.751 4.61067 41.311 3.17333 42.431 2.24C43.5696 1.30667 45.3056 0.839999 47.639 0.839999H54.639C54.9936 0.839999 55.2456 0.923999 55.395 1.092C55.563 1.24133 55.647 1.49333 55.647 1.848V5.236C55.647 5.59067 55.563 5.852 55.395 6.02C55.2456 6.16933 54.9936 6.244 54.639 6.244H48.815C48.2363 6.244 47.807 6.36533 47.527 6.608C47.247 6.832 47.107 7.17733 47.107 7.644V14.336C47.107 14.8027 47.2096 15.148 47.415 15.372C47.639 15.596 47.9656 15.708 48.395 15.708H51.111V11.34C51.111 10.9853 51.1856 10.7333 51.335 10.584C51.503 10.416 51.7643 10.332 52.119 10.332H56.459C56.8136 10.332 57.0656 10.416 57.215 10.584C57.383 10.7333 57.467 10.9853 57.467 11.34V19.992C57.467 20.3467 57.383 20.608 57.215 20.776C57.0656 20.9253 56.8136 21 56.459 21ZM61.4432 21C61.0885 21 60.8272 20.9253 60.6592 20.776C60.5098 20.608 60.4352 20.3467 60.4352 19.992V16.66C60.4352 16.3053 60.5098 16.0533 60.6592 15.904C60.8272 15.736 61.0885 15.652 61.4432 15.652H64.2152V6.244H61.4432C61.0885 6.244 60.8272 6.16933 60.6592 6.02C60.5098 5.852 60.4352 5.59067 60.4352 5.236V1.848C60.4352 1.49333 60.5098 1.24133 60.6592 1.092C60.8272 0.923999 61.0885 0.839999 61.4432 0.839999H73.3712C73.7258 0.839999 73.9778 0.923999 74.1272 1.092C74.2952 1.24133 74.3792 1.49333 74.3792 1.848V5.236C74.3792 5.59067 74.2952 5.852 74.1272 6.02C73.9778 6.16933 73.7258 6.244 73.3712 6.244H70.6552V15.652H73.3712C73.7258 15.652 73.9778 15.736 74.1272 15.904C74.2952 16.0533 74.3792 16.3053 74.3792 16.66V19.992C74.3792 20.3467 74.2952 20.608 74.1272 20.776C73.9778 20.9253 73.7258 21 73.3712 21H61.4432ZM83.0443 21H78.8443C78.4896 21 78.2283 20.9253 78.0603 20.776C77.911 20.608 77.8363 20.3467 77.8363 19.992V1.848C77.8363 1.49333 77.911 1.24133 78.0603 1.092C78.2283 0.923999 78.4896 0.839999 78.8443 0.839999H81.7563C82.111 0.839999 82.4096 0.895999 82.6523 1.008C82.9136 1.12 83.1656 1.316 83.4083 1.596L88.8403 7.812V1.848C88.8403 1.49333 88.915 1.24133 89.0643 1.092C89.2323 0.923999 89.4936 0.839999 89.8483 0.839999H94.0483C94.403 0.839999 94.655 0.923999 94.8043 1.092C94.9723 1.24133 95.0563 1.49333 95.0563 1.848V19.992C95.0563 20.3467 94.9723 20.608 94.8043 20.776C94.655 20.9253 94.403 21 94.0483 21H89.8483C89.4936 21 89.2323 20.9253 89.0643 20.776C88.915 20.608 88.8403 20.3467 88.8403 19.992V16.548L84.0523 10.752V19.992C84.0523 20.3467 83.9683 20.608 83.8003 20.776C83.651 20.9253 83.399 21 83.0443 21Z" fill="#222222"/>
</svg>
