<svg width="129" height="60" viewBox="0 0 129 60" fill="none" xmlns="http://www.w3.org/2000/svg">
<path d="M123.84 57.4286V60H5.16V57.4286H123.84ZM126.42 54.8571V41.6271C122.321 39.3636 119.54 35.0087 119.54 30C119.54 24.9913 122.32 20.6356 126.42 18.3721V5.14286C126.42 3.76706 125.336 2.64361 123.973 2.57478L123.84 2.57143H5.16C3.73511 2.57143 2.58 3.7227 2.58 5.14286V18.144C6.91519 20.3349 9.89 24.8186 9.89 30C9.89 35.1814 6.91496 39.6643 2.58 41.8552V54.8571C2.58 56.2773 3.73511 57.4286 5.16 57.4286V60C2.31021 60 7.61858e-08 57.6975 0 54.8571V40.1539C4.24996 38.7241 7.31 34.7183 7.31 30C7.31 25.2817 4.25003 21.2754 0 19.8457V5.14286C0 2.30254 2.31021 0 5.16 0H123.84C126.69 1.491e-06 129 2.30254 129 5.14286V20.0014C124.975 21.5499 122.12 25.4425 122.12 30C122.12 34.5575 124.975 38.4496 129 39.9982V54.8571C129 57.6975 126.69 60 123.84 60V57.4286C125.265 57.4286 126.42 56.2773 126.42 54.8571Z" fill="#FFCF36"/>
<path d="M12.04 8.57143C12.04 8.09804 12.425 7.71429 12.9 7.71429H116.53C117.005 7.71429 117.39 8.09804 117.39 8.57143C117.39 9.04482 117.005 9.42857 116.53 9.42857H12.9C12.425 9.42857 12.04 9.04482 12.04 8.57143Z" fill="#FFCF36"/>
<path d="M12.04 52.7143C12.04 52.2409 12.425 51.8571 12.9 51.8571H116.53C117.005 51.8571 117.39 52.2409 117.39 52.7143C117.39 53.1877 117.005 53.5714 116.53 53.5714H12.9C12.425 53.5714 12.04 53.1877 12.04 52.7143Z" fill="#FFCF36"/>
<path d="M119.97 8.57143C119.97 8.09804 120.355 7.71429 120.83 7.71429C121.305 7.71429 121.69 8.09804 121.69 8.57143C121.69 9.04482 121.305 9.42857 120.83 9.42857C120.355 9.42857 119.97 9.04482 119.97 8.57143Z" fill="#FFCF36"/>
<path d="M121.69 52.7143C121.69 53.1877 121.305 53.5714 120.83 53.5714C120.355 53.5714 119.97 53.1877 119.97 52.7143C119.97 52.2409 120.355 51.8571 120.83 51.8571C121.305 51.8571 121.69 52.2409 121.69 52.7143Z" fill="#FFCF36"/>
<path d="M119.97 12.4286C119.97 11.9552 120.355 11.5714 120.83 11.5714C121.305 11.5714 121.69 11.9552 121.69 12.4286V17.1429C121.69 17.6162 121.305 18 120.83 18C120.355 18 119.97 17.6162 119.97 17.1429V12.4286Z" fill="#FFCF36"/>
<path d="M121.69 48.8571C121.69 49.3305 121.305 49.7143 120.83 49.7143C120.355 49.7143 119.97 49.3305 119.97 48.8571V44.1429C119.97 43.6695 120.355 43.2857 120.83 43.2857C121.305 43.2857 121.69 43.6695 121.69 44.1429V48.8571Z" fill="#FFCF36"/>
<path d="M7.74 8.57143C7.74 8.09804 8.12504 7.71429 8.6 7.71429C9.07497 7.71429 9.46 8.09804 9.46 8.57143C9.46 9.04482 9.07497 9.42857 8.6 9.42857C8.12504 9.42857 7.74 9.04482 7.74 8.57143Z" fill="#FFCF36"/>
<path d="M7.74 12.4286C7.74 11.9552 8.12504 11.5714 8.6 11.5714C9.07497 11.5714 9.46 11.9552 9.46 12.4286V18C9.46 18.4734 9.07497 18.8571 8.6 18.8571C8.12504 18.8571 7.74 18.4734 7.74 18V12.4286Z" fill="#FFCF36"/>
<path d="M9.03 52.7143C9.03 53.1877 8.64497 53.5714 8.17 53.5714C7.69504 53.5714 7.31 53.1877 7.31 52.7143C7.31 52.2409 7.69504 51.8571 8.17 51.8571C8.64497 51.8571 9.03 52.2409 9.03 52.7143Z" fill="#FFCF36"/>
<path d="M9.04848 48.8571C9.04848 49.3305 8.66344 49.7143 8.18848 49.7143C7.71351 49.7143 7.32848 49.3305 7.32848 48.8571V43.2857C7.32848 42.8123 7.71351 42.4286 8.18848 42.4286C8.66344 42.4286 9.04848 42.8123 9.04848 43.2857V48.8571Z" fill="#FFCF36"/>
<path d="M106.1 27.7491H97.1786V29.0846H107.734V33.9703H80.7078V29.0846H91.2635V27.7491H82.4725V17.0657H106.1V27.7491ZM100.381 23.5149V21.3H88.1916V23.5149H100.381ZM87.8647 35.208V38.3023H106.656V43.0251H82.1458V35.208H87.8647Z" fill="#FFCF36"/>
<path d="M63.9897 17.1634V19.6714C63.9244 20.5509 63.7936 21.3651 63.6302 22.1794H66.6041V16.9029H71.6368V31.5926H66.6041V26.9349C66.1466 27 65.6237 27.0651 65.0355 27.0651C64.4472 27.0977 63.859 27.1303 63.3361 27.1303C62.7479 27.1629 62.2577 27.1629 61.8328 27.1629H61.4733C61.2446 27.4886 61.0158 27.7817 60.7544 28.0749C59.7086 29.1823 58.4341 30.1269 56.9308 30.8434C55.3949 31.5926 53.5975 32.0811 51.5386 32.2766L50.2641 28.4006C52.3556 28.0097 54.055 27.3909 55.3295 26.6091H51.0484V22.7657H58.4668C58.5648 22.4074 58.6629 22.0491 58.7282 21.6583H50.5256V17.1634H63.9897ZM73.0748 33.7097V16.9029H78.2382V33.7097H73.0748ZM51.5713 39.0189C54.5125 38.5629 56.9635 37.8137 58.9243 36.804C60.8198 35.8269 62.0289 34.524 62.5518 32.9606L62.6171 32.5371H68.7283V32.8954C68.6303 33.6771 68.4669 34.4263 68.2054 35.1429C69.8067 35.436 71.3427 35.7943 72.846 36.2177C74.7414 36.804 76.7676 37.7486 78.9245 39.0189L76.3428 43.7417C74.5127 42.6343 72.6499 41.7223 70.7218 41.0057C68.8264 40.3217 66.8982 39.8006 64.9048 39.5074C64.7414 39.6051 64.578 39.768 64.4146 39.8657C61.8002 41.7549 58.2054 42.9926 53.5648 43.5789L51.5713 39.0189Z" fill="#FFCF36"/>
<path d="M37.465 29.2149V22.2771H31.8441V29.2149H37.465ZM26.2885 22.2771H22.5303V17.2286H46.8115V22.2771H43.0206V29.2149H46.8115V34.2634H43.2494V37.5206H48.1187V42.732H21.0924V37.5206H25.6022V34.2634H22.5303V29.2149H26.2885V22.2771ZM37.5304 34.2634H31.3212V37.5206H37.5304V34.2634Z" fill="#FFCF36"/>
</svg>
