<svg width="162" height="22" viewBox="0 0 162 22" fill="none" xmlns="http://www.w3.org/2000/svg">
<path d="M6.28 21H1.94C1.58533 21 1.324 20.9253 1.156 20.776C1.00667 20.608 0.932 20.3467 0.932 19.992V1.848C0.932 1.49333 1.00667 1.24133 1.156 1.092C1.324 0.923999 1.58533 0.839999 1.94 0.839999H10.508C13.0467 0.839999 14.7827 1.344 15.716 2.352C16.6493 3.36 17.116 4.676 17.116 6.3V9.884C17.116 11.508 16.6493 12.824 15.716 13.832C14.7827 14.84 13.0467 15.344 10.508 15.344H7.288V19.992C7.288 20.3467 7.204 20.608 7.036 20.776C6.88667 20.9253 6.63467 21 6.28 21ZM7.232 6.076V10.304H9.752C10.2933 10.304 10.648 10.164 10.816 9.884C10.984 9.604 11.068 9.28667 11.068 8.932V7.448C11.068 7.09333 10.984 6.776 10.816 6.496C10.648 6.216 10.2933 6.076 9.752 6.076H7.232ZM30.2379 21H25.7019C25.3473 21 25.0859 20.9253 24.9179 20.776C24.7686 20.608 24.6939 20.3467 24.6939 19.992V16.408L20.4099 10.668C19.9806 10.0893 19.6913 9.58533 19.5419 9.156C19.4113 8.72667 19.3459 8.08267 19.3459 7.224V1.848C19.3459 1.49333 19.4206 1.24133 19.5699 1.092C19.7379 0.923999 19.9993 0.839999 20.3539 0.839999H24.6659C25.0206 0.839999 25.2726 0.923999 25.4219 1.092C25.5899 1.24133 25.6739 1.49333 25.6739 1.848V6.44C25.6739 6.62667 25.6833 6.82267 25.7019 7.028C25.7206 7.23333 25.7953 7.42933 25.9259 7.616L27.2139 9.632C27.3073 9.8 27.4006 9.92133 27.4939 9.996C27.6059 10.0707 27.7366 10.108 27.8859 10.108H28.1659C28.3153 10.108 28.4366 10.0707 28.5299 9.996C28.6419 9.92133 28.7446 9.8 28.8379 9.632L30.1259 7.616C30.2566 7.42933 30.3313 7.23333 30.3499 7.028C30.3686 6.82267 30.3779 6.62667 30.3779 6.44V1.848C30.3779 1.49333 30.4526 1.24133 30.6019 1.092C30.7699 0.923999 31.0313 0.839999 31.3859 0.839999H35.5579C35.9126 0.839999 36.1646 0.923999 36.3139 1.092C36.4819 1.24133 36.5659 1.49333 36.5659 1.848V7.224C36.5659 8.08267 36.4913 8.72667 36.3419 9.156C36.1926 9.58533 35.9126 10.0893 35.5019 10.668L31.2459 16.436V19.992C31.2459 20.3467 31.1619 20.608 30.9939 20.776C30.8446 20.9253 30.5926 21 30.2379 21ZM56.8401 15.708C56.8401 16.5667 56.7095 17.3507 56.4481 18.06C56.2055 18.7507 55.7575 19.348 55.1041 19.852C54.4695 20.3373 53.5828 20.72 52.4441 21C51.3241 21.28 49.8961 21.42 48.1601 21.42C46.4241 21.42 44.9868 21.28 43.8481 21C42.7095 20.72 41.8135 20.3373 41.1601 19.852C40.5255 19.348 40.0775 18.7507 39.8161 18.06C39.5735 17.3507 39.4521 16.5667 39.4521 15.708V6.16C39.4521 5.30133 39.5735 4.52667 39.8161 3.836C40.0775 3.12667 40.5255 2.52 41.1601 2.016C41.8135 1.512 42.7095 1.12 43.8481 0.839999C44.9868 0.559999 46.4241 0.42 48.1601 0.42C49.8961 0.42 51.3241 0.559999 52.4441 0.839999C53.5828 1.12 54.4695 1.512 55.1041 2.016C55.7575 2.52 56.2055 3.12667 56.4481 3.836C56.7095 4.52667 56.8401 5.30133 56.8401 6.16V15.708ZM45.8081 14.7C45.8081 15.0733 45.9481 15.3907 46.2281 15.652C46.5081 15.8947 47.1521 16.016 48.1601 16.016C49.1681 16.016 49.8121 15.8947 50.0921 15.652C50.3721 15.3907 50.5121 15.0733 50.5121 14.7V7.168C50.5121 6.81333 50.3721 6.51467 50.0921 6.272C49.8121 6.01067 49.1681 5.88 48.1601 5.88C47.1521 5.88 46.5081 6.01067 46.2281 6.272C45.9481 6.51467 45.8081 6.81333 45.8081 7.168V14.7ZM65.7527 21H61.4127C61.058 21 60.7967 20.9253 60.6287 20.776C60.4793 20.608 60.4047 20.3467 60.4047 19.992V1.848C60.4047 1.49333 60.4793 1.24133 60.6287 1.092C60.7967 0.923999 61.058 0.839999 61.4127 0.839999H65.7527C66.1073 0.839999 66.3593 0.923999 66.5087 1.092C66.6767 1.24133 66.7607 1.49333 66.7607 1.848V8.288H67.8807L70.7647 1.764C70.8953 1.428 71.0727 1.19467 71.2967 1.064C71.5207 0.914666 71.81 0.839999 72.1647 0.839999H76.4767C76.794 0.839999 77.0087 0.923999 77.1207 1.092C77.2327 1.24133 77.2233 1.46533 77.0927 1.764L74.2367 8.288C75.282 8.344 76.1127 8.71733 76.7287 9.408C77.3633 10.08 77.6807 10.976 77.6807 12.096V19.992C77.6807 20.3467 77.5967 20.608 77.4287 20.776C77.2793 20.9253 77.0273 21 76.6727 21H72.3607C72.006 21 71.7447 20.9253 71.5767 20.776C71.4273 20.608 71.3527 20.3467 71.3527 19.992V14.532C71.3527 14.2333 71.278 14 71.1287 13.832C70.9793 13.664 70.7553 13.58 70.4567 13.58H66.7607V19.992C66.7607 20.3467 66.6767 20.608 66.5087 20.776C66.3593 20.9253 66.1073 21 65.7527 21ZM95.2953 21H82.3033C81.9486 21 81.6873 20.9253 81.5193 20.776C81.3699 20.608 81.2953 20.3467 81.2953 19.992V1.848C81.2953 1.49333 81.3699 1.24133 81.5193 1.092C81.6873 0.923999 81.9486 0.839999 82.3033 0.839999H95.2953C95.6499 0.839999 95.9019 0.923999 96.0513 1.092C96.2193 1.24133 96.3033 1.49333 96.3033 1.848V5.124C96.3033 5.47867 96.2193 5.74 96.0513 5.908C95.9019 6.05733 95.6499 6.132 95.2953 6.132H87.5673V8.288H93.0273C93.3819 8.288 93.6339 8.372 93.7833 8.54C93.9513 8.68933 94.0353 8.94133 94.0353 9.296V12.292C94.0353 12.6467 93.9513 12.908 93.7833 13.076C93.6339 13.2253 93.3819 13.3 93.0273 13.3H87.5673V15.708H95.2953C95.6499 15.708 95.9019 15.792 96.0513 15.96C96.2193 16.1093 96.3033 16.3613 96.3033 16.716V19.992C96.3033 20.3467 96.2193 20.608 96.0513 20.776C95.9019 20.9253 95.6499 21 95.2953 21ZM104.796 21H100.624C100.269 21 100.008 20.9253 99.8396 20.776C99.6903 20.608 99.6156 20.3467 99.6156 19.992V1.848C99.6156 1.49333 99.6903 1.24133 99.8396 1.092C100.008 0.923999 100.269 0.839999 100.624 0.839999H105.132C105.43 0.839999 105.673 0.905332 105.86 1.036C106.065 1.16667 106.252 1.38133 106.42 1.68L108.94 6.244C109.033 6.412 109.108 6.53333 109.164 6.608C109.238 6.68267 109.332 6.72 109.444 6.72H109.696C109.808 6.72 109.892 6.68267 109.948 6.608C110.022 6.53333 110.106 6.412 110.2 6.244L112.692 1.68C112.86 1.38133 113.037 1.16667 113.224 1.036C113.429 0.905332 113.681 0.839999 113.98 0.839999H118.516C118.87 0.839999 119.122 0.923999 119.272 1.092C119.44 1.24133 119.524 1.49333 119.524 1.848V19.992C119.524 20.3467 119.44 20.608 119.272 20.776C119.122 20.9253 118.87 21 118.516 21H114.204C113.849 21 113.588 20.9253 113.42 20.776C113.27 20.608 113.196 20.3467 113.196 19.992V10.136L111.544 13.188C111.376 13.5053 111.17 13.7387 110.928 13.888C110.704 14.0187 110.414 14.084 110.06 14.084H108.94C108.585 14.084 108.286 14.0187 108.044 13.888C107.82 13.7387 107.624 13.5053 107.456 13.188L105.804 10.136V19.992C105.804 20.3467 105.72 20.608 105.552 20.776C105.402 20.9253 105.15 21 104.796 21ZM140.457 15.708C140.457 16.5667 140.327 17.3507 140.065 18.06C139.823 18.7507 139.375 19.348 138.721 19.852C138.087 20.3373 137.2 20.72 136.061 21C134.941 21.28 133.513 21.42 131.777 21.42C130.041 21.42 128.604 21.28 127.465 21C126.327 20.72 125.431 20.3373 124.777 19.852C124.143 19.348 123.695 18.7507 123.433 18.06C123.191 17.3507 123.069 16.5667 123.069 15.708V6.16C123.069 5.30133 123.191 4.52667 123.433 3.836C123.695 3.12667 124.143 2.52 124.777 2.016C125.431 1.512 126.327 1.12 127.465 0.839999C128.604 0.559999 130.041 0.42 131.777 0.42C133.513 0.42 134.941 0.559999 136.061 0.839999C137.2 1.12 138.087 1.512 138.721 2.016C139.375 2.52 139.823 3.12667 140.065 3.836C140.327 4.52667 140.457 5.30133 140.457 6.16V15.708ZM129.425 14.7C129.425 15.0733 129.565 15.3907 129.845 15.652C130.125 15.8947 130.769 16.016 131.777 16.016C132.785 16.016 133.429 15.8947 133.709 15.652C133.989 15.3907 134.129 15.0733 134.129 14.7V7.168C134.129 6.81333 133.989 6.51467 133.709 6.272C133.429 6.01067 132.785 5.88 131.777 5.88C130.769 5.88 130.125 6.01067 129.845 6.272C129.565 6.51467 129.425 6.81333 129.425 7.168V14.7ZM149.23 21H145.03C144.675 21 144.414 20.9253 144.246 20.776C144.097 20.608 144.022 20.3467 144.022 19.992V1.848C144.022 1.49333 144.097 1.24133 144.246 1.092C144.414 0.923999 144.675 0.839999 145.03 0.839999H147.942C148.297 0.839999 148.595 0.895999 148.838 1.008C149.099 1.12 149.351 1.316 149.594 1.596L155.026 7.812V1.848C155.026 1.49333 155.101 1.24133 155.25 1.092C155.418 0.923999 155.679 0.839999 156.034 0.839999H160.234C160.589 0.839999 160.841 0.923999 160.99 1.092C161.158 1.24133 161.242 1.49333 161.242 1.848V19.992C161.242 20.3467 161.158 20.608 160.99 20.776C160.841 20.9253 160.589 21 160.234 21H156.034C155.679 21 155.418 20.9253 155.25 20.776C155.101 20.608 155.026 20.3467 155.026 19.992V16.548L150.238 10.752V19.992C150.238 20.3467 150.154 20.608 149.986 20.776C149.837 20.9253 149.585 21 149.23 21Z" fill="#222222"/>
</svg>
