<svg width="104" height="19" viewBox="0 0 104 19" fill="none" xmlns="http://www.w3.org/2000/svg">
<path d="M8.74231 18H1.15831C0.854313 18 0.630313 17.936 0.486313 17.808C0.358313 17.664 0.294313 17.44 0.294313 17.136V14.328C0.294313 14.024 0.358313 13.808 0.486313 13.68C0.630313 13.536 0.854313 13.464 1.15831 13.464H7.61431C7.82231 13.464 7.97431 13.4 8.07031 13.272C8.18231 13.128 8.23831 12.96 8.23831 12.768C8.23831 12.496 8.18231 12.296 8.07031 12.168C7.97431 12.04 7.82231 11.968 7.61431 11.952L4.01431 11.448C2.89431 11.288 1.99031 10.92 1.30231 10.344C0.630313 9.768 0.294313 8.808 0.294313 7.464V4.944C0.294313 3.584 0.734313 2.544 1.61431 1.824C2.49431 1.088 3.71031 0.719999 5.26231 0.719999H11.9823C12.2863 0.719999 12.5023 0.791999 12.6303 0.935999C12.7743 1.064 12.8463 1.28 12.8463 1.584V4.44C12.8463 4.744 12.7743 4.968 12.6303 5.112C12.5023 5.24 12.2863 5.304 11.9823 5.304H6.39031C6.18231 5.304 6.02231 5.376 5.91031 5.52C5.79831 5.648 5.74231 5.816 5.74231 6.024C5.74231 6.232 5.79831 6.408 5.91031 6.552C6.02231 6.696 6.18231 6.776 6.39031 6.792L9.96631 7.272C11.0863 7.432 11.9903 7.8 12.6783 8.376C13.3663 8.952 13.7103 9.912 13.7103 11.256V13.776C13.7103 15.136 13.2623 16.184 12.3663 16.92C11.4863 17.64 10.2783 18 8.74231 18ZM16.8157 18C16.5117 18 16.2877 17.936 16.1437 17.808C16.0157 17.664 15.9517 17.44 15.9517 17.136V14.28C15.9517 13.976 16.0157 13.76 16.1437 13.632C16.2877 13.488 16.5117 13.416 16.8157 13.416H19.1917V5.352H16.8157C16.5117 5.352 16.2877 5.288 16.1437 5.16C16.0157 5.016 15.9517 4.792 15.9517 4.488V1.584C15.9517 1.28 16.0157 1.064 16.1437 0.935999C16.2877 0.791999 16.5117 0.719999 16.8157 0.719999H27.0397C27.3437 0.719999 27.5597 0.791999 27.6877 0.935999C27.8317 1.064 27.9037 1.28 27.9037 1.584V4.488C27.9037 4.792 27.8317 5.016 27.6877 5.16C27.5597 5.288 27.3437 5.352 27.0397 5.352H24.7117V13.416H27.0397C27.3437 13.416 27.5597 13.488 27.6877 13.632C27.8317 13.76 27.9037 13.976 27.9037 14.28V17.136C27.9037 17.44 27.8317 17.664 27.6877 17.808C27.5597 17.936 27.3437 18 27.0397 18H16.8157ZM44.0669 18H36.5069C34.5069 18 33.0189 17.6 32.0429 16.8C31.0829 16 30.6029 14.768 30.6029 13.104V5.616C30.6029 3.952 31.0829 2.72 32.0429 1.92C33.0189 1.12 34.5069 0.719999 36.5069 0.719999H42.5069C42.8109 0.719999 43.0269 0.791999 43.1549 0.935999C43.2989 1.064 43.3709 1.28 43.3709 1.584V4.488C43.3709 4.792 43.2989 5.016 43.1549 5.16C43.0269 5.288 42.8109 5.352 42.5069 5.352H37.5149C37.0189 5.352 36.6509 5.456 36.4109 5.664C36.1709 5.856 36.0509 6.152 36.0509 6.552V12.288C36.0509 12.688 36.1389 12.984 36.3149 13.176C36.5069 13.368 36.7869 13.464 37.1549 13.464H39.4829V9.72C39.4829 9.416 39.5469 9.2 39.6749 9.072C39.8189 8.928 40.0429 8.856 40.3469 8.856H44.0669C44.3709 8.856 44.5869 8.928 44.7149 9.072C44.8589 9.2 44.9309 9.416 44.9309 9.72V17.136C44.9309 17.44 44.8589 17.664 44.7149 17.808C44.5869 17.936 44.3709 18 44.0669 18ZM52.3231 18H48.7231C48.4191 18 48.1951 17.936 48.0511 17.808C47.9231 17.664 47.8591 17.44 47.8591 17.136V1.584C47.8591 1.28 47.9231 1.064 48.0511 0.935999C48.1951 0.791999 48.4191 0.719999 48.7231 0.719999H51.2191C51.5231 0.719999 51.7791 0.767999 51.9871 0.863999C52.2111 0.96 52.4271 1.128 52.6351 1.368L57.2911 6.696V1.584C57.2911 1.28 57.3551 1.064 57.4831 0.935999C57.6271 0.791999 57.8511 0.719999 58.1551 0.719999H61.7551C62.0591 0.719999 62.2751 0.791999 62.4031 0.935999C62.5471 1.064 62.6191 1.28 62.6191 1.584V17.136C62.6191 17.44 62.5471 17.664 62.4031 17.808C62.2751 17.936 62.0591 18 61.7551 18H58.1551C57.8511 18 57.6271 17.936 57.4831 17.808C57.3551 17.664 57.2911 17.44 57.2911 17.136V14.184L53.1871 9.216V17.136C53.1871 17.44 53.1151 17.664 52.9711 17.808C52.8431 17.936 52.6271 18 52.3231 18ZM86.0321 13.464C86.0321 14.2 85.9201 14.872 85.6961 15.48C85.4881 16.072 85.1041 16.584 84.5441 17.016C84.0001 17.432 83.2481 17.76 82.2881 18C81.3281 18.24 80.1041 18.36 78.6161 18.36C77.1281 18.36 75.9041 18.24 74.9441 18C73.9841 17.76 73.2241 17.432 72.6641 17.016C72.1201 16.584 71.7361 16.072 71.5121 15.48C71.3041 14.872 71.2001 14.2 71.2001 13.464V1.584C71.2001 1.28 71.2641 1.064 71.3921 0.935999C71.5361 0.791999 71.7601 0.719999 72.0641 0.719999H75.8321C76.1361 0.719999 76.3521 0.791999 76.4801 0.935999C76.6241 1.064 76.6961 1.28 76.6961 1.584V12.528C76.6961 12.848 76.8161 13.12 77.0561 13.344C77.2961 13.552 77.8321 13.656 78.6641 13.656C79.5121 13.656 80.0561 13.552 80.2961 13.344C80.5361 13.12 80.6561 12.848 80.6561 12.528V1.584C80.6561 1.28 80.7201 1.064 80.8481 0.935999C80.9921 0.791999 81.2161 0.719999 81.5201 0.719999H85.1681C85.4721 0.719999 85.6881 0.791999 85.8161 0.935999C85.9601 1.064 86.0321 1.28 86.0321 1.584V13.464ZM93.8103 18H90.0903C89.7863 18 89.5623 17.936 89.4183 17.808C89.2903 17.664 89.2263 17.44 89.2263 17.136V1.584C89.2263 1.28 89.2903 1.064 89.4183 0.935999C89.5623 0.791999 89.7863 0.719999 90.0903 0.719999H97.4343C99.6103 0.719999 101.098 1.152 101.898 2.016C102.698 2.88 103.098 4.008 103.098 5.4V8.472C103.098 9.864 102.698 10.992 101.898 11.856C101.098 12.72 99.6103 13.152 97.4343 13.152H94.6743V17.136C94.6743 17.44 94.6023 17.664 94.4583 17.808C94.3303 17.936 94.1143 18 93.8103 18ZM94.6263 5.208V8.832H96.7863C97.2503 8.832 97.5543 8.712 97.6983 8.472C97.8423 8.232 97.9143 7.96 97.9143 7.656V6.384C97.9143 6.08 97.8423 5.808 97.6983 5.568C97.5543 5.328 97.2503 5.208 96.7863 5.208H94.6263Z" fill="#222222"/>
</svg>
