<svg width="16" height="16" viewBox="0 0 16 16" fill="none" xmlns="http://www.w3.org/2000/svg">
<path d="M9.35348 4.85355C9.54874 4.65829 9.54874 4.34171 9.35348 4.14645L8.10348 2.89645C7.90822 2.70118 7.59163 2.70118 7.39637 2.89645C7.20111 3.09171 7.20111 3.40829 7.39637 3.60355L7.79784 4.00502C5.68263 4.11031 4 5.85866 4 8C4 8.95878 4.33796 9.83996 4.90078 10.529C5.07547 10.7428 5.39046 10.7746 5.60432 10.5999C5.81818 10.4252 5.84993 10.1102 5.67524 9.89635C5.25293 9.37935 5 8.71989 5 8C5 6.41535 6.22863 5.11767 7.78525 5.00757L7.39637 5.39645C7.20111 5.59171 7.20111 5.90829 7.39637 6.10355C7.59163 6.29882 7.90822 6.29882 8.10348 6.10355L9.35348 4.85355ZM10.1945 5.22803C9.99419 5.41815 9.98597 5.73463 10.1761 5.93489C10.6872 6.47323 11 7.19955 11 8C11 9.58465 9.77137 10.8823 8.21475 10.9924L8.60363 10.6036C8.79889 10.4083 8.79889 10.0917 8.60363 9.89645C8.40837 9.70118 8.09178 9.70118 7.89652 9.89645L6.64652 11.1464C6.45126 11.3417 6.45126 11.6583 6.64652 11.8536L7.89652 13.1036C8.09178 13.2988 8.40837 13.2988 8.60363 13.1036C8.79889 12.9083 8.79889 12.5917 8.60363 12.3964L8.20216 11.995C10.3174 11.8897 12 10.1413 12 8C12 6.93326 11.5818 5.96312 10.9013 5.24639C10.7112 5.04612 10.3947 5.0379 10.1945 5.22803Z" fill="currentColor"/>
</svg>
