<svg width="22" height="22" viewBox="0 0 22 22" fill="none" xmlns="http://www.w3.org/2000/svg">
<path d="M11.0002 1.83203C16.0628 1.83203 20.1668 5.93609 20.1668 10.9987C20.1668 16.0613 16.0628 20.1654 11.0002 20.1654C9.51673 20.1654 8.08317 19.8121 6.79528 19.146L3.28828 20.1244C2.67878 20.2946 2.0467 19.9385 1.87649 19.329C1.82017 19.1273 1.8202 18.914 1.87653 18.7125L2.85522 15.2082C2.18767 13.9192 1.8335 12.4839 1.8335 10.9987C1.8335 5.93609 5.93755 1.83203 11.0002 1.83203ZM11.0002 3.20703C6.69694 3.20703 3.2085 6.69548 3.2085 10.9987C3.2085 12.3458 3.55021 13.6418 4.19211 14.7914L4.3302 15.0387L3.31021 18.6908L6.96459 17.6713L7.21166 17.8091C8.36022 18.4495 9.65466 18.7904 11.0002 18.7904C15.3034 18.7904 18.7918 15.3019 18.7918 10.9987C18.7918 6.69548 15.3034 3.20703 11.0002 3.20703ZM8.021 11.9154H12.1444C12.5241 11.9154 12.8319 12.2232 12.8319 12.6029C12.8319 12.9509 12.5733 13.2386 12.2377 13.2841L12.1444 13.2904H8.021C7.6413 13.2904 7.3335 12.9826 7.3335 12.6029C7.3335 12.2548 7.59214 11.9672 7.92771 11.9216L8.021 11.9154H12.1444H8.021ZM8.021 8.70703H13.9834C14.3631 8.70703 14.6709 9.01483 14.6709 9.39453C14.6709 9.74258 14.4123 10.0302 14.0767 10.0758L13.9834 10.082H8.021C7.6413 10.082 7.3335 9.77423 7.3335 9.39453C7.3335 9.04648 7.59214 8.75883 7.92771 8.71331L8.021 8.70703H13.9834H8.021Z" fill="#2C3137"/>
</svg>
