<svg width="18" height="18" viewBox="0 0 18 18" fill="none" xmlns="http://www.w3.org/2000/svg">
<path d="M8 4H10C10 3.44772 9.55228 3 9 3C8.44772 3 8 3.44772 8 4ZM7 4C7 2.89543 7.89543 2 9 2C10.1046 2 11 2.89543 11 4H15C15.2761 4 15.5 4.22386 15.5 4.5C15.5 4.77614 15.2761 5 15 5H14.4364L13.2313 13.8378C13.0624 15.0765 12.0044 16 10.7542 16H7.24578C5.99561 16 4.93762 15.0765 4.76871 13.8378L3.56355 5H3C2.72386 5 2.5 4.77614 2.5 4.5C2.5 4.22386 2.72386 4 3 4H7ZM8 7.5C8 7.22386 7.77614 7 7.5 7C7.22386 7 7 7.22386 7 7.5V12.5C7 12.7761 7.22386 13 7.5 13C7.77614 13 8 12.7761 8 12.5V7.5ZM10.5 7C10.7761 7 11 7.22386 11 7.5V12.5C11 12.7761 10.7761 13 10.5 13C10.2239 13 10 12.7761 10 12.5V7.5C10 7.22386 10.2239 7 10.5 7ZM5.75954 13.7027C5.86089 14.4459 6.49568 15 7.24578 15H10.7542C11.5043 15 12.1391 14.4459 12.2405 13.7027L13.4272 5H4.57281L5.75954 13.7027Z" fill="currentColor"/>
</svg>
