<svg width="323" height="265" viewBox="0 0 323 265" fill="none" xmlns="http://www.w3.org/2000/svg">
<path d="M161.274 264.307C226.829 264.307 279.971 254.395 279.971 242.167C279.971 229.939 226.829 220.026 161.274 220.026C95.7203 220.026 42.5781 229.939 42.5781 242.167C42.5781 254.395 95.7203 264.307 161.274 264.307Z" fill="#F5F5F7" fill-opacity="0.8"/>
<path fill-rule="evenodd" clip-rule="evenodd" d="M256.23 177.122L214.343 125.66C212.334 123.238 209.396 121.771 206.302 121.771H116.243C113.151 121.771 110.213 123.238 108.204 125.66L66.3184 177.122V204.008H256.232V177.122H256.23Z" fill="#AEB8C2"/>
<path fill-rule="evenodd" clip-rule="evenodd" d="M101.806 55.3506H220.74C222.598 55.3506 224.379 56.0871 225.692 57.3982C227.005 58.7093 227.743 60.4874 227.743 62.3415V225.483C227.743 227.337 227.005 229.115 225.692 230.426C224.379 231.737 222.598 232.474 220.74 232.474H101.806C99.9485 232.474 98.1672 231.737 96.8539 230.426C95.5406 229.115 94.8027 227.337 94.8027 225.483V62.3415C94.8027 60.4874 95.5406 58.7093 96.8539 57.3982C98.1672 56.0871 99.9485 55.3506 101.806 55.3506V55.3506Z" fill="#F5F5F7"/>
<path fill-rule="evenodd" clip-rule="evenodd" d="M117.297 72.7461H205.25C206.178 72.7461 207.069 73.1144 207.726 73.7699C208.382 74.4254 208.751 75.3145 208.751 76.2416V119.86C208.751 120.787 208.382 121.676 207.726 122.332C207.069 122.987 206.178 123.355 205.25 123.355H117.297C116.368 123.355 115.478 122.987 114.821 122.332C114.164 121.676 113.795 120.787 113.795 119.86V76.2416C113.795 75.3145 114.164 74.4254 114.821 73.7699C115.478 73.1144 116.368 72.7461 117.297 72.7461ZM117.756 142.331H204.791C205.841 142.331 206.849 142.747 207.591 143.489C208.334 144.23 208.751 145.236 208.751 146.284C208.751 147.333 208.334 148.338 207.591 149.079C206.849 149.821 205.841 150.237 204.791 150.237H117.756C116.705 150.237 115.698 149.821 114.955 149.079C114.213 148.338 113.795 147.333 113.795 146.284C113.795 145.236 114.213 144.23 114.955 143.489C115.698 142.747 116.705 142.331 117.756 142.331ZM117.756 162.889H204.791C205.842 162.889 206.849 163.306 207.592 164.047C208.335 164.789 208.752 165.795 208.752 166.844C208.752 167.892 208.335 168.898 207.592 169.64C206.849 170.381 205.842 170.798 204.791 170.798H117.756C116.705 170.798 115.697 170.381 114.955 169.64C114.212 168.898 113.794 167.892 113.794 166.844C113.794 165.795 114.212 164.789 114.955 164.047C115.697 163.306 116.705 162.889 117.756 162.889ZM255.843 238.92C254.486 244.287 249.721 248.287 244.052 248.287H78.4947C72.8257 248.287 68.0602 244.285 66.7051 238.92C66.4466 237.897 66.3161 236.846 66.3164 235.791V177.125H112.393C117.482 177.125 121.584 181.403 121.584 186.597V186.667C121.584 191.86 125.734 196.053 130.823 196.053H191.723C196.813 196.053 200.962 191.821 200.962 186.627V186.606C200.962 181.412 205.064 177.123 210.154 177.123H256.23V235.793C256.23 236.871 256.095 237.918 255.843 238.92Z" fill="#DCE0E6"/>
<path fill-rule="evenodd" clip-rule="evenodd" d="M261.634 58.1858L249.677 62.8173C249.37 62.9365 249.035 62.9668 248.711 62.9046C248.388 62.8424 248.088 62.6903 247.847 62.4657C247.606 62.2411 247.434 61.9532 247.35 61.6351C247.265 61.317 247.273 60.9816 247.371 60.6676L250.762 49.8193C246.23 44.674 243.568 38.3996 243.568 31.6289C243.568 14.1602 261.283 0 283.136 0C304.983 0 322.699 14.1602 322.699 31.6289C322.699 49.0975 304.985 63.2577 283.134 63.2577C275.206 63.2577 267.825 61.3946 261.634 58.1858Z" fill="#DCE0E6"/>
<path d="M298.72 37.3408C301.475 37.3408 303.708 35.138 303.708 32.4209C303.708 29.7037 301.475 27.501 298.72 27.501C295.966 27.501 293.732 29.7037 293.732 32.4209C293.732 35.138 295.966 37.3408 298.72 37.3408Z" fill="white"/>
<path fill-rule="evenodd" clip-rule="evenodd" d="M272.536 36.7256H262.561L267.634 28.1162L272.536 36.7256ZM278.771 28.1162H287.498V36.7256H278.771V28.1162Z" fill="white"/>
</svg>
