<svg width="22" height="22" viewBox="0 0 22 22" fill="none" xmlns="http://www.w3.org/2000/svg">
<path d="M11.7515 5.11468L10.9992 5.86865L10.2446 5.114C8.32041 3.18985 5.20075 3.18985 3.27661 5.114C1.35246 7.03814 1.35246 10.1578 3.27661 12.0819L10.514 19.3194C10.7825 19.5879 11.2178 19.5879 11.4863 19.3194L18.7293 12.0806C20.6492 10.1501 20.6525 7.03917 18.728 5.11468C16.8003 3.18703 13.6792 3.18703 11.7515 5.11468ZM17.7544 11.111L11.0002 17.861L4.24888 11.1097C2.8617 9.7225 2.8617 7.47345 4.24888 6.08627C5.63605 4.6991 7.88511 4.6991 9.27228 6.08627L10.5166 7.33059C10.7896 7.60364 11.234 7.59832 11.5004 7.31881L12.7238 6.08695C14.1145 4.69628 16.365 4.69627 17.7557 6.08695C19.1432 7.47446 19.1408 9.71684 17.7544 11.111Z" fill="#2C3137"/>
</svg>
