<svg width="18" height="18" viewBox="0 0 18 18" fill="none" xmlns="http://www.w3.org/2000/svg">
<path d="M12.2375 0.317533L12.6293 1.52218C12.7511 1.88842 12.9568 2.22121 13.2299 2.49411C13.503 2.76702 13.836 2.97251 14.2025 3.09425L15.4081 3.48576L15.4322 3.49178C15.5251 3.52454 15.6056 3.58529 15.6625 3.66566C15.7194 3.74603 15.75 3.84206 15.75 3.94052C15.75 4.03897 15.7194 4.135 15.6625 4.21537C15.6056 4.29574 15.5251 4.35649 15.4322 4.38925L14.2267 4.78076C13.8601 4.9025 13.5271 5.10799 13.254 5.38089C12.9809 5.6538 12.7752 5.98659 12.6534 6.35283L12.2616 7.55747C12.2288 7.65032 12.168 7.73072 12.0876 7.7876C12.0071 7.84447 11.911 7.87501 11.8125 7.87501C11.714 7.87501 11.6179 7.84447 11.5374 7.7876C11.5295 7.78199 11.5218 7.77615 11.5142 7.77009C11.4453 7.71474 11.393 7.64117 11.3634 7.55747L10.9716 6.35283C10.9506 6.28891 10.9269 6.226 10.9009 6.16424C10.7771 5.87106 10.5978 5.6038 10.3721 5.37748C10.3292 5.33445 10.2848 5.29308 10.2391 5.25344C9.99339 5.04073 9.70784 4.87787 9.39835 4.77473L8.19278 4.38322C8.09986 4.35047 8.01939 4.28972 7.96248 4.20935C7.90556 4.12898 7.875 4.03295 7.875 3.93449C7.875 3.83604 7.90556 3.74 7.96248 3.65963C8.01939 3.57926 8.09986 3.51852 8.19278 3.48576L9.39835 3.09425C9.7604 2.96933 10.0886 2.76242 10.3574 2.4897C10.6261 2.21699 10.8281 1.88585 10.9475 1.52218L11.3393 0.317533C11.3721 0.224685 11.4329 0.144284 11.5133 0.0874122C11.5938 0.0305407 11.6899 0 11.7884 0C11.8869 0 11.983 0.0305407 12.0635 0.0874122C12.1439 0.144284 12.2047 0.224685 12.2375 0.317533ZM17.7558 9.23983L16.8947 8.96019C16.6329 8.87323 16.395 8.72645 16.1999 8.53152C16.0048 8.33659 15.8579 8.09888 15.7709 7.83728L15.491 6.97682C15.4676 6.91049 15.4242 6.85307 15.3668 6.81244C15.3093 6.77182 15.2407 6.75001 15.1703 6.75001C15.0999 6.75001 15.0313 6.77182 14.9738 6.81244C14.9163 6.85307 14.8729 6.91049 14.8495 6.97682L14.5696 7.83728C14.4844 8.09704 14.3401 8.33357 14.1481 8.52837C13.9562 8.72317 13.7217 8.87096 13.4631 8.96019L12.602 9.23983C12.5356 9.26323 12.4781 9.30662 12.4375 9.36403C12.3968 9.42144 12.375 9.49003 12.375 9.56036C12.375 9.63068 12.3968 9.69928 12.4375 9.75669C12.4781 9.81409 12.5356 9.85748 12.602 9.88088L13.4631 10.1605C13.7254 10.2479 13.9636 10.3954 14.1587 10.5911C14.3538 10.7868 14.5004 11.0253 14.5869 11.2877L14.8667 12.1482C14.8901 12.2145 14.9336 12.272 14.991 12.3126C15.0485 12.3532 15.1171 12.375 15.1875 12.375C15.2579 12.375 15.3265 12.3532 15.384 12.3126C15.4414 12.272 15.4849 12.2145 15.5083 12.1482L15.7881 11.2877C15.8752 11.0261 16.022 10.7884 16.2171 10.5935C16.4122 10.3986 16.6501 10.2518 16.9119 10.1648L17.773 9.88518C17.8394 9.86179 17.8969 9.81839 17.9375 9.76099C17.9782 9.70358 18 9.63499 18 9.56466C18 9.49434 17.9782 9.42574 17.9375 9.36833C17.8969 9.31093 17.8394 9.26753 17.773 9.24414L17.7558 9.23983ZM14.625 13.3885C14.529 13.3492 14.4371 13.2998 14.3507 13.2408C14.1029 13.0605 13.9228 12.8239 13.8102 12.5422L13.5174 11.6407C13.5119 11.6261 13.5062 11.6115 13.5 11.597V14.625C13.5 15.2463 12.9963 15.75 12.375 15.75H5.625C5.00368 15.75 4.5 15.2463 4.5 14.625V3.375C4.5 2.75368 5.00368 2.25 5.625 2.25H8.35859L9.04709 2.02876C9.22725 1.97242 9.40742 1.84847 9.5538 1.70198C9.70018 1.55549 9.81278 1.37519 9.88035 1.17236L9.89583 1.125H5.625C4.38236 1.125 3.375 2.13236 3.375 3.375V14.625C3.375 15.8676 4.38236 16.875 5.625 16.875H12.375C13.6176 16.875 14.625 15.8676 14.625 14.625V13.3885ZM10.7886 9.55344C11.051 9.50581 11.25 9.27614 11.25 9C11.25 8.68934 10.9982 8.4375 10.6875 8.4375H7.3125L7.21139 8.44656C6.94898 8.49419 6.75 8.72386 6.75 9C6.75 9.31066 7.00184 9.5625 7.3125 9.5625H10.6875L10.7886 9.55344ZM11.25 12.9284C11.25 13.2046 11.051 13.4342 10.7886 13.4819L10.6875 13.4909H7.3125C7.00184 13.4909 6.75 13.2391 6.75 12.9284C6.75 12.6523 6.94898 12.4226 7.21139 12.375L7.3125 12.3659H10.6875C10.9982 12.3659 11.25 12.6178 11.25 12.9284Z" fill="currentColor"/>
</svg>
