<svg width="22" height="22" viewBox="0 0 22 22" fill="none" xmlns="http://www.w3.org/2000/svg">
    <path
        d="M9.16634 2.52148C12.8367 2.52148 15.8122 5.49693 15.8122 9.16732C15.8122 10.7549 15.2555 12.2124 14.3268 13.3554L18.8191 17.8478C19.0876 18.1163 19.0876 18.5516 18.8191 18.8201C18.5751 19.0642 18.1931 19.0864 17.924 18.8867L17.8469 18.8201L13.3544 14.3277C12.2114 15.2565 10.7539 15.8132 9.16634 15.8132C5.49595 15.8132 2.52051 12.8377 2.52051 9.16732C2.52051 5.49693 5.49595 2.52148 9.16634 2.52148ZM9.16634 3.89648C6.25534 3.89648 3.89551 6.25632 3.89551 9.16732C3.89551 12.0783 6.25534 14.4382 9.16634 14.4382C12.0773 14.4382 14.4372 12.0783 14.4372 9.16732C14.4372 6.25632 12.0773 3.89648 9.16634 3.89648Z"
        fill="#2C3137" />
</svg>